<svg width="24" height="24" viewBox="0 0 24 24" fill="none" xmlns="http://www.w3.org/2000/svg">
<g clip-path="url(#clip0_704_14450)">
<path d="M23.9871 15.0198C23.9273 13.6448 23.6882 12.1202 23.3295 10.6853C22.9708 9.31027 22.5224 8.02486 21.9843 7.03839C19.8918 3.36155 17.6199 3.92952 14.8996 4.64695C14.0327 4.8562 13.1061 5.09535 12.1495 5.18502H11.8505C10.894 5.09535 9.96728 4.8562 9.10038 4.64695C6.38012 3.95941 4.10825 3.36155 2.01573 7.06829C1.47766 8.05476 0.99937 9.34016 0.670547 10.7152C0.31183 12.1501 0.0726859 13.6746 0.0128998 15.0497C-0.0468863 16.5743 0.102579 17.6803 0.431402 18.4575C0.760226 19.175 1.23851 19.6234 1.86627 19.8027C2.43424 19.9522 3.09188 19.8924 3.77942 19.5935C4.94525 19.1152 6.29044 18.0988 7.60573 16.8732C8.53242 15.9764 10.2662 15.528 12 15.528C13.7338 15.528 15.4676 15.9764 16.3943 16.8732C17.7096 18.0988 19.0548 19.1152 20.2206 19.5935C20.9081 19.8625 21.5658 19.9522 22.1337 19.8027C22.7316 19.6234 23.2398 19.2049 23.5686 18.4276C23.8974 17.6803 24.0469 16.5743 23.9871 15.0198ZM22.5522 18.0091C22.3729 18.4276 22.1337 18.6668 21.8348 18.7565C21.506 18.8461 21.0875 18.7864 20.6092 18.607C19.5629 18.1885 18.3373 17.2618 17.1416 16.1259C16.0057 14.9899 14.0028 14.422 12 14.422C9.99717 14.422 7.99434 14.9899 6.82851 16.0661C5.6029 17.202 4.37728 18.1586 3.36092 18.5472C2.88263 18.7266 2.46413 18.8163 2.13531 18.6967C1.83638 18.607 1.59723 18.3679 1.41787 17.9494C1.17873 17.3814 1.05916 16.4547 1.11894 15.0796C1.17873 13.7942 1.38798 12.3295 1.7467 10.9544C2.07552 9.66898 2.49402 8.47326 3.0022 7.57647C4.64632 4.61706 6.55947 5.09535 8.83135 5.69321C9.75803 5.93235 10.7146 6.1715 11.7609 6.26117C11.7908 6.26117 11.7908 6.26117 11.8207 6.26117H12.1495C12.1794 6.26117 12.1794 6.26117 12.2093 6.26117C13.2854 6.1715 14.242 5.93235 15.1687 5.69321C17.4405 5.12524 19.3537 4.61706 20.9978 7.57647C21.506 8.47326 21.9245 9.63909 22.2533 10.9544C22.5821 12.3295 22.8213 13.7643 22.8811 15.0796C22.9409 16.4547 22.8213 17.3814 22.5522 18.0091Z" fill="black"/>
<path d="M9.24976 9.19069C8.95083 8.92165 8.59212 8.7124 8.17361 8.68251C8.14372 8.2939 7.96436 7.90529 7.69532 7.63625L7.66543 7.60636C7.33661 7.27753 6.91811 7.09818 6.43982 7.09818C5.96153 7.09818 5.51313 7.30743 5.2142 7.60636C4.94517 7.87539 4.73591 8.264 4.70602 8.68251C4.28752 8.7124 3.9288 8.89176 3.62987 9.16079L3.59998 9.19069C3.27116 9.51951 3.0918 9.93801 3.0918 10.4163C3.0918 10.8946 3.30105 11.343 3.59998 11.6419C3.89891 11.9408 4.25763 12.1202 4.70602 12.1501C4.73591 12.5686 4.91527 12.9572 5.2142 13.2262C5.54303 13.5551 5.96153 13.7344 6.43982 13.7344C6.91811 13.7344 7.3665 13.5252 7.66543 13.2262C7.93447 12.9273 8.14372 12.5686 8.17361 12.1501C8.59212 12.1202 8.98073 11.9408 9.24976 11.6419C9.57859 11.3131 9.75794 10.8946 9.75794 10.4163C9.75794 9.93801 9.54869 9.48962 9.24976 9.19069ZM8.50244 10.8647C8.38286 10.9843 8.2334 11.0441 8.05404 11.0441H7.63554C7.33661 11.0441 7.06757 11.2832 7.06757 11.612V12.0006C7.06757 12.18 7.00778 12.3295 6.88821 12.449C6.76864 12.5686 6.61918 12.6284 6.43982 12.6284C6.26046 12.6284 6.11099 12.5686 5.99142 12.449C5.87185 12.3295 5.81206 12.18 5.81206 12.0006V11.5821C5.81206 11.2832 5.57292 11.0142 5.2441 11.0142H4.82559C4.64623 11.0142 4.49677 10.9544 4.3772 10.8348C4.28752 10.7451 4.19784 10.5957 4.19784 10.4163C4.19784 10.2369 4.25763 10.0875 4.3772 9.96791C4.3772 9.96791 4.3772 9.96791 4.40709 9.93801C4.52666 9.84833 4.67613 9.78855 4.82559 9.78855H5.2441C5.54303 9.78855 5.81206 9.5494 5.81206 9.22058V8.80208C5.81206 8.62272 5.87185 8.47325 5.99142 8.35368C6.11099 8.23411 6.26046 8.17432 6.43982 8.17432C6.61918 8.17432 6.76864 8.23411 6.88821 8.35368C6.88821 8.35368 6.88821 8.35368 6.91811 8.38358C7.00779 8.50315 7.06757 8.65261 7.06757 8.80208V9.22058C7.06757 9.51951 7.30672 9.78855 7.63554 9.78855H8.05404C8.2334 9.78855 8.38286 9.84833 8.50244 9.96791C8.62201 10.0875 8.6818 10.2369 8.6818 10.4163C8.6818 10.5957 8.62201 10.7451 8.50244 10.8647Z" fill="black"/>
<path d="M17.2006 9.34016C17.7784 9.34016 18.2468 8.87173 18.2468 8.2939C18.2468 7.71607 17.7784 7.24764 17.2006 7.24764C16.6227 7.24764 16.1543 7.71607 16.1543 8.2939C16.1543 8.87173 16.6227 9.34016 17.2006 9.34016Z" fill="black"/>
<path d="M17.2006 13.585C17.7784 13.585 18.2468 13.1165 18.2468 12.5387C18.2468 11.9609 17.7784 11.4925 17.2006 11.4925C16.6227 11.4925 16.1543 11.9609 16.1543 12.5387C16.1543 13.1165 16.6227 13.585 17.2006 13.585Z" fill="black"/>
<path d="M15.0795 11.4626C15.6573 11.4626 16.1257 10.9941 16.1257 10.4163C16.1257 9.83847 15.6573 9.37005 15.0795 9.37005C14.5016 9.37005 14.0332 9.83847 14.0332 10.4163C14.0332 10.9941 14.5016 11.4626 15.0795 11.4626Z" fill="black"/>
<path d="M19.3236 11.4626C19.9014 11.4626 20.3699 10.9941 20.3699 10.4163C20.3699 9.83847 19.9014 9.37005 19.3236 9.37005C18.7458 9.37005 18.2773 9.83847 18.2773 10.4163C18.2773 10.9941 18.7458 11.4626 19.3236 11.4626Z" fill="black"/>
</g>
<defs>
<clipPath id="clip0_704_14450">
<rect width="24" height="24" fill="white"/>
</clipPath>
</defs>
</svg>
