<svg width="24" height="24" viewBox="0 0 24 24" fill="none" xmlns="http://www.w3.org/2000/svg">
<path d="M17.3076 7.49128C13.0237 4.88498 15.0326 1.20638 15.1188 1.05347C15.2439 0.835875 15.2435 0.568172 15.1178 0.350953C14.9921 0.133734 14.7602 0 14.5092 0C12.3041 0 10.5773 0.626531 9.37687 1.86225C7.32567 3.97373 7.42083 7.26 7.46142 8.66334C7.46592 8.81878 7.46981 8.95312 7.46981 9.05288C7.46981 10.0948 7.63697 11.0567 7.78448 11.9054C7.87955 12.4523 7.96162 12.9246 7.9762 13.296C7.99181 13.6935 7.91925 13.7846 7.91616 13.7882C7.9058 13.8005 7.81955 13.8464 7.58634 13.8464C7.32037 13.8464 7.1243 13.7595 6.95058 13.5647C6.27202 12.8039 6.22509 10.7263 6.35484 9.59597C6.37805 9.39666 6.315 9.19697 6.18155 9.04716C6.04814 8.89734 5.85708 8.81166 5.65645 8.81166C3.83091 8.81166 2.4668 11.797 2.4668 14.4663C2.4668 15.7211 2.71917 16.9503 3.21694 18.1197C3.69816 19.2502 4.38436 20.2706 5.25656 21.1523C7.07306 22.9887 9.46805 24 12.0004 24C14.543 24 16.9373 23.003 18.7425 21.1927C20.543 19.387 21.5345 16.9981 21.5345 14.4662C21.5345 11.2355 19.0067 8.52492 17.3076 7.49128ZM12.0004 22.5938C7.59497 22.5938 3.87309 18.8718 3.87309 14.4662C3.87309 13.3948 4.12875 12.2701 4.57448 11.3806C4.67859 11.1728 4.78542 10.9946 4.89084 10.8444C4.90261 12.0044 5.08636 13.5857 5.89987 14.4993C6.33872 14.9921 6.92189 15.2526 7.58639 15.2526C8.20716 15.2526 8.68022 15.0645 8.99231 14.6934C9.57581 13.9997 9.3967 12.9692 9.17002 11.6646C9.03225 10.8719 8.87611 9.97345 8.87611 9.05283C8.87611 8.93269 8.87194 8.78902 8.86716 8.62256C8.82867 7.29328 8.74856 4.52723 10.3856 2.84212C11.1204 2.08561 12.1464 1.6252 13.4444 1.46766C13.2979 1.95422 13.1715 2.57189 13.1667 3.26348C13.1559 4.7873 13.7387 6.96609 16.5767 8.69269C17.9498 9.52805 20.1283 11.8342 20.1283 14.4662C20.1282 18.9478 16.4821 22.5938 12.0004 22.5938Z" fill="black"/>
</svg>
