<svg width="24" height="24" viewBox="0 0 24 24" fill="none" xmlns="http://www.w3.org/2000/svg">
<path d="M12 8.25C9.93225 8.25 8.25 9.93225 8.25 12C8.25 14.0677 9.93225 15.75 12 15.75C14.0677 15.75 15.75 14.0677 15.75 12C15.75 9.93225 14.0677 8.25 12 8.25ZM12 14.25C10.7595 14.25 9.75 13.2405 9.75 12C9.75 10.7595 10.7595 9.75 12 9.75C13.2405 9.75 14.25 10.7595 14.25 12C14.25 13.2405 13.2405 14.25 12 14.25Z" fill="black"/>
<path d="M20.644 13.527L20.2495 13.299C19.78 13.0283 19.4995 12.5422 19.4995 12C19.4995 11.4578 19.78 10.9717 20.2495 10.701L20.644 10.473C21.721 9.85125 22.0892 8.4765 21.4675 7.3995L20.7175 6.1005C20.0972 5.02575 18.718 4.65675 17.644 5.277L17.2495 5.50425C16.78 5.77575 16.2182 5.77575 15.7495 5.50425C15.28 5.23275 14.9995 4.7475 14.9995 4.20525V3.75C14.9995 2.5095 13.99 1.5 12.7495 1.5H11.2495C10.009 1.5 8.99947 2.5095 8.99947 3.75V4.206C8.99947 4.74825 8.71897 5.2335 8.24947 5.505C7.77997 5.77575 7.21897 5.7765 6.74947 5.505L6.35497 5.277C5.28097 4.65675 3.90172 5.02575 3.28072 6.1005L2.53072 7.3995C1.90897 8.4765 2.27722 9.85125 3.35422 10.473L3.74947 10.701C4.21897 10.9717 4.49947 11.4578 4.49947 12C4.49947 12.5422 4.21897 13.0283 3.74947 13.299L3.35497 13.527C2.27797 14.1487 1.90972 15.5235 2.53147 16.6005L3.28147 17.8995C3.90247 18.9742 5.28172 19.3433 6.35497 18.723L6.74947 18.4958C7.21897 18.2235 7.77997 18.225 8.24947 18.4958C8.71897 18.7673 8.99947 19.2525 8.99947 19.7948V20.25C8.99947 21.4905 10.009 22.5 11.2495 22.5H12.7495C13.99 22.5 14.9995 21.4905 14.9995 20.25V19.794C14.9995 19.2518 15.28 18.7665 15.7495 18.495C16.2182 18.2243 16.78 18.2235 17.2495 18.495L17.644 18.723C18.718 19.3425 20.0972 18.9735 20.7175 17.8995L21.4675 16.6005C22.0892 15.5235 21.721 14.1487 20.644 13.527ZM20.1685 15.8505L19.4185 17.1495C19.2107 17.511 18.748 17.6303 18.394 17.424L17.9995 17.196C17.0597 16.6537 15.9385 16.6537 14.9995 17.196C14.0605 17.7382 13.4995 18.7095 13.4995 19.794V20.25C13.4995 20.6632 13.1627 21 12.7495 21H11.2495C10.8362 21 10.4995 20.6632 10.4995 20.25V19.794C10.4995 18.7095 9.93847 17.7382 8.99947 17.196C8.06047 16.6537 6.93847 16.6537 5.99947 17.196L5.60497 17.424C5.24722 17.6325 4.78747 17.508 4.58047 17.1495L3.83047 15.8505C3.62047 15.4868 3.75097 15.03 4.10497 14.826L4.49947 14.598C5.43847 14.0558 5.99947 13.0845 5.99947 12C5.99947 10.9155 5.43847 9.94425 4.49947 9.402L4.10497 9.174C3.75172 8.97075 3.62047 8.51325 3.83047 8.1495L4.58047 6.8505C4.79122 6.4845 5.25622 6.3735 5.60497 6.576L5.99947 6.804C6.93922 7.34625 8.06047 7.34625 8.99947 6.804C9.93847 6.26175 10.4995 5.2905 10.4995 4.206V3.75C10.4995 3.33675 10.8362 3 11.2495 3H12.7495C13.1627 3 13.4995 3.33675 13.4995 3.75V4.206C13.4995 5.2905 14.0605 6.26175 14.9995 6.804C15.9385 7.34625 17.0605 7.34625 17.9995 6.804L18.394 6.576C18.7487 6.37125 19.2092 6.4875 19.4185 6.8505L20.1685 8.1495C20.3785 8.51325 20.248 8.97 19.894 9.174L19.4995 9.402C18.5605 9.94425 17.9995 10.9155 17.9995 12C17.9995 13.0845 18.5605 14.0558 19.4995 14.598L19.894 14.826C20.248 15.03 20.3785 15.4868 20.1685 15.8505Z" fill="black"/>
</svg>
