<svg width="24" height="24" viewBox="0 0 24 24" fill="none" xmlns="http://www.w3.org/2000/svg">
<g clip-path="url(#clip0_704_14453)">
<path d="M11.9995 24C16.8153 24.0045 20.7228 20.1042 20.7273 15.2885C20.7298 12.6365 19.5252 10.1275 17.4541 8.47096V5.4546C17.4541 2.44206 15.012 0 11.9995 0C8.98706 0 6.54504 2.44206 6.54504 5.45455V8.47091C2.78428 11.4789 2.17402 16.966 5.18197 20.7268C6.83847 22.7979 9.34749 24.0025 11.9995 24ZM8.72684 5.45455C8.72684 3.64708 10.1921 2.1818 11.9996 2.1818C13.8071 2.1818 15.2723 3.64703 15.2723 5.45455V7.18803C13.1746 6.33135 10.8246 6.33135 8.72689 7.18803V5.45455H8.72684ZM11.9995 8.72725C15.6145 8.72725 18.545 11.6578 18.545 15.2727C18.545 18.8876 15.6145 21.8182 11.9995 21.8182C8.3846 21.8182 5.45409 18.8877 5.45409 15.2727C5.45773 11.6593 8.38611 8.73089 11.9995 8.72725Z" fill="black"/>
<path d="M10.9077 16.0614V18.5455C10.9077 19.148 11.3961 19.6364 11.9986 19.6364C12.6011 19.6364 13.0895 19.1479 13.0895 18.5455V16.0614C14.133 15.4589 14.4906 14.1246 13.8881 13.081C13.2856 12.0375 11.9512 11.6799 10.9077 12.2824C9.86413 12.8849 9.50658 14.2193 10.1091 15.2628C10.3006 15.5945 10.576 15.87 10.9077 16.0614Z" fill="black"/>
</g>
<defs>
<clipPath id="clip0_704_14453">
<rect width="24" height="24" fill="white"/>
</clipPath>
</defs>
</svg>
