<svg width="200" height="134" viewBox="0 0 200 134" fill="none" xmlns="http://www.w3.org/2000/svg">
<path fill-rule="evenodd" clip-rule="evenodd" d="M13.8036 54.2C6.18008 58.1836 3.22934 67.593 7.21293 75.2165L30.2943 119.388C34.2779 127.012 43.6873 129.962 51.3108 125.979L141.231 78.9916C148.855 75.008 151.806 65.5986 147.822 57.9751L124.741 13.8036C120.757 6.18004 111.348 3.2293 103.724 7.2129L13.8036 54.2ZM125.044 66.3435C126.791 65.4414 127.476 63.2939 126.574 61.547C125.672 59.8001 123.524 59.1153 121.777 60.0174L46.2588 99.0155C44.5119 99.9176 43.8271 102.065 44.7292 103.812C45.6313 105.559 47.7787 106.244 49.5256 105.342L125.044 66.3435Z" fill="#B9B9B9"/>
<path fill-rule="evenodd" clip-rule="evenodd" d="M71.2127 41.6735C62.729 43.0924 57.0018 51.12 58.4206 59.6038L66.6417 108.759C68.0606 117.243 76.0882 122.97 84.5719 121.552L184.639 104.816C193.123 103.397 198.85 95.3693 197.431 86.8856L189.21 37.7299C187.791 29.2461 179.764 23.5189 171.28 24.9378L71.2127 41.6735ZM173.18 87.7657C175.121 87.4508 176.439 85.6222 176.124 83.6816C175.809 81.7409 173.981 80.4229 172.04 80.7379L88.144 94.3528C86.2033 94.6677 84.8854 96.4962 85.2004 98.4369C85.5153 100.378 87.3438 101.696 89.2845 101.381L173.18 87.7657Z" fill="#050303"/>
</svg>
