<svg width="24" height="24" viewBox="0 0 24 24" fill="none" xmlns="http://www.w3.org/2000/svg">
<g clip-path="url(#clip0_704_14448)">
<path d="M21.424 13.2309C21.4213 13.2282 21.4186 13.2255 21.4158 13.2228C20.8473 12.6803 19.9527 12.6803 19.3841 13.2228L14.3762 18.2307C14.1597 18.443 13.812 18.4396 13.5997 18.223C13.5009 18.1223 13.4447 17.9874 13.4427 17.8463V1.4388C13.4428 0.644214 12.7987 5.14826e-05 12.0042 3.08584e-09C11.2096 -5.14764e-05 10.5654 0.644009 10.5654 1.43859C10.5654 1.43865 10.5654 1.43875 10.5654 1.4388V17.7914C10.5611 18.0946 10.3118 18.337 10.0086 18.3328C9.86755 18.3308 9.73263 18.2746 9.63188 18.1758L4.62396 13.1679C4.05989 12.6038 3.14531 12.6038 2.58125 13.1679C2.01719 13.732 2.01719 14.6465 2.58125 15.2106L10.9827 23.6121C11.0494 23.6784 11.123 23.7372 11.2024 23.7878L11.444 23.9195L11.6087 23.9745H11.7295C11.9146 24.0085 12.1044 24.0085 12.2896 23.9745H12.3994H12.5422L12.7289 23.8756C12.8329 23.8191 12.929 23.7489 13.0144 23.667L21.4159 15.2655C21.98 14.7059 21.9836 13.795 21.424 13.2309Z" fill="black"/>
</g>
<defs>
<clipPath id="clip0_704_14448">
<rect width="24" height="24" fill="white"/>
</clipPath>
</defs>
</svg>
