<svg width="24" height="24" viewBox="0 0 24 24" fill="none" xmlns="http://www.w3.org/2000/svg">
<g clip-path="url(#clip0_704_14717)">
<path d="M16.2545 7.74603C15.1751 6.66667 13.6513 5.96825 12.0005 5.96825C10.3497 5.96825 8.82589 6.63492 7.74653 7.74603C6.66716 8.8254 5.96875 10.3492 5.96875 12C5.96875 13.6508 6.66716 15.1746 7.74653 16.254C8.82589 17.3333 10.3497 18.0317 12.0005 18.0317C13.6513 18.0317 15.1751 17.3651 16.2545 16.254C17.3338 15.1746 18.0322 13.6508 18.0322 12C18.0322 10.3492 17.3656 8.8254 16.2545 7.74603ZM15.1116 15.1111C14.318 15.9048 13.2068 16.381 12.0005 16.381C10.7941 16.381 9.68304 15.9048 8.88939 15.1111C8.09573 14.3175 7.61954 13.2063 7.61954 12C7.61954 10.7937 8.09573 9.68254 8.88939 8.88889C9.68304 8.09524 10.7941 7.61905 12.0005 7.61905C13.2068 7.61905 14.318 8.09524 15.1116 8.88889C15.9053 9.68254 16.3814 10.7937 16.3814 12C16.3814 13.2063 15.9053 14.3175 15.1116 15.1111Z" fill="black"/>
<path d="M23.1741 11.1746H20.7297C20.2852 11.1746 19.9043 11.5556 19.9043 12C19.9043 12.4444 20.2852 12.8254 20.7297 12.8254H23.1741C23.6186 12.8254 23.9995 12.4444 23.9995 12C23.9995 11.5556 23.6186 11.1746 23.1741 11.1746Z" fill="black"/>
<path d="M11.9992 19.9048C11.5548 19.9048 11.1738 20.2857 11.1738 20.7302V23.1746C11.1738 23.619 11.5548 24 11.9992 24C12.4437 24 12.8246 23.619 12.8246 23.1746V20.7302C12.8246 20.2857 12.4437 19.9048 11.9992 19.9048Z" fill="black"/>
<path d="M20.4766 19.3333L18.7306 17.5873C18.4448 17.2698 17.9052 17.2698 17.5877 17.5873C17.2702 17.9048 17.2702 18.4127 17.5877 18.7302L19.3337 20.4762C19.6512 20.7936 20.1591 20.7936 20.4766 20.4762C20.7941 20.1587 20.7941 19.6508 20.4766 19.3333Z" fill="black"/>
<path d="M11.9992 0C11.5548 0 11.1738 0.380952 11.1738 0.825397V3.26984C11.1738 3.71429 11.5548 4.09524 11.9992 4.09524C12.4437 4.09524 12.8246 3.71429 12.8246 3.26984V0.825397C12.8246 0.380952 12.4437 0 11.9992 0Z" fill="black"/>
<path d="M20.5078 3.52381C20.1904 3.20635 19.6824 3.20635 19.365 3.52381L17.619 5.26984C17.3015 5.5873 17.3015 6.09524 17.619 6.4127C17.9047 6.73016 18.4444 6.73016 18.7618 6.4127L20.5078 4.66667C20.8253 4.34921 20.8253 3.84127 20.5078 3.52381Z" fill="black"/>
<path d="M3.26984 11.1746H0.825397C0.380952 11.1746 0 11.5556 0 12C0 12.4444 0.349206 12.8254 0.825397 12.8254H3.26984C3.71429 12.8254 4.09524 12.4444 4.09524 12C4.09524 11.5556 3.71429 11.1746 3.26984 11.1746Z" fill="black"/>
<path d="M6.38089 17.5873C6.09518 17.2698 5.55549 17.2698 5.23803 17.5873L3.492 19.3333C3.17454 19.6508 3.17454 20.1587 3.492 20.4762C3.80946 20.7936 4.3174 20.7936 4.63486 20.4762L6.38089 18.7302C6.69835 18.4127 6.69835 17.9048 6.38089 17.5873Z" fill="black"/>
<path d="M6.38089 5.26984L4.63486 3.52381C4.3174 3.20635 3.80946 3.20635 3.492 3.52381C3.17454 3.84127 3.17454 4.34921 3.492 4.66667L5.23803 6.4127C5.55549 6.73016 6.06343 6.73016 6.38089 6.4127C6.69835 6.09524 6.69835 5.5873 6.38089 5.26984Z" fill="black"/>
</g>
<defs>
<clipPath id="clip0_704_14717">
<rect width="24" height="24" fill="white"/>
</clipPath>
</defs>
</svg>
