<svg width="24" height="24" viewBox="0 0 24 24" fill="none" xmlns="http://www.w3.org/2000/svg">
<g clip-path="url(#clip0_704_14449)">
<path d="M21.4264 8.79778C21.4237 8.79505 21.421 8.79237 21.4182 8.78964L13.0278 0.388188C12.9611 0.321883 12.8875 0.26299 12.8081 0.212489L12.5666 0.0807014L12.4018 0.0257727H12.281C12.0959 -0.00825522 11.9061 -0.00825522 11.7209 0.0257727H11.6111H11.4793L11.2926 0.124613C11.1885 0.181138 11.0925 0.251304 11.007 0.33326L2.58365 8.78964C2.01959 9.34923 2.01593 10.2602 2.57551 10.8242C2.57819 10.8269 2.58092 10.8296 2.58365 10.8323C3.15224 11.3748 4.04675 11.3748 4.61539 10.8323L9.63428 5.82442C9.8508 5.61212 10.1985 5.61552 10.4108 5.83209C10.5096 5.93284 10.5658 6.06772 10.5678 6.20882V22.5614C10.5677 23.356 11.2118 24.0002 12.0064 24.0002C12.8009 24.0003 13.4451 23.3562 13.4452 22.5616C13.4452 22.5616 13.4452 22.5615 13.4452 22.5614V6.20882C13.4494 5.90561 13.6987 5.66319 14.0019 5.66746C14.143 5.66947 14.2779 5.72563 14.3786 5.82442L19.3756 10.8323C19.9456 11.3818 20.8483 11.3818 21.4183 10.8323C21.9824 10.2728 21.986 9.36184 21.4264 8.79778Z" fill="white
"/>
</g>
<defs>
<clipPath id="clip0_704_14449">
<rect width="24" height="24" fill="white"/>
</clipPath>
</defs>
</svg>
